<?xml version="1.0" encoding="UTF-8" standalone="no"?>
<!-- Created with Inkscape (http://www.inkscape.org/) -->

<svg
   xmlns:dc="http://purl.org/dc/elements/1.1/"
   xmlns:cc="http://creativecommons.org/ns#"
   xmlns:rdf="http://www.w3.org/1999/02/22-rdf-syntax-ns#"
   xmlns:svg="http://www.w3.org/2000/svg"
   xmlns="http://www.w3.org/2000/svg"
   xmlns:sodipodi="http://sodipodi.sourceforge.net/DTD/sodipodi-0.dtd"
   xmlns:inkscape="http://www.inkscape.org/namespaces/inkscape"
   id="svg90"
   sodipodi:version="0.32"
   inkscape:version="0.46+devel"
   width="51"
   height="168"
   version="1.0"
   sodipodi:docname="sriracha.svg"
   inkscape:output_extension="org.inkscape.output.svg.inkscape">
  <metadata
     id="metadata96">
    <rdf:RDF>
      <cc:Work
         rdf:about="">
        <dc:format>image/svg+xml</dc:format>
        <dc:type
           rdf:resource="http://purl.org/dc/dcmitype/StillImage" />
        <dc:title></dc:title>
      </cc:Work>
    </rdf:RDF>
  </metadata>
  <defs
     id="defs94">
    <linearGradient
       id="linearGradient1536">
      <stop
         style="stop-color:#06bb06;stop-opacity:1;"
         offset="0"
         id="stop1538" />
      <stop
         style="stop-color:#008000;stop-opacity:0;"
         offset="1"
         id="stop1540" />
    </linearGradient>
    <linearGradient
       id="linearGradient1289">
      <stop
         id="stop1291"
         offset="0"
         style="stop-color:#d90505;stop-opacity:1;" />
      <stop
         id="stop1293"
         offset="1"
         style="stop-color:#ff3737;stop-opacity:0;" />
    </linearGradient>
    <linearGradient
       id="linearGradient1273">
      <stop
         style="stop-color:#d80000;stop-opacity:1;"
         offset="0"
         id="stop1275" />
      <stop
         style="stop-color:#ffaaaa;stop-opacity:1;"
         offset="1"
         id="stop1277" />
    </linearGradient>
    <linearGradient
       id="linearGradient1265">
      <stop
         style="stop-color:#005500;stop-opacity:1;"
         offset="0"
         id="stop1267" />
      <stop
         style="stop-color:#53e053;stop-opacity:1;"
         offset="1"
         id="stop1269" />
    </linearGradient>
    <linearGradient
       id="linearGradient1090">
      <stop
         style="stop-color:#e92222;stop-opacity:1;"
         offset="0"
         id="stop1092" />
      <stop
         style="stop-color:#ffffff;stop-opacity:1;"
         offset="1"
         id="stop1094" />
    </linearGradient>
    <inkscape:perspective
       sodipodi:type="inkscape:persp3d"
       inkscape:vp_x="0 : 0.5 : 1"
       inkscape:vp_y="0 : 1000 : 0"
       inkscape:vp_z="1 : 0.5 : 1"
       inkscape:persp3d-origin="0.5 : 0.33333333 : 1"
       id="perspective98" />
  </defs>
  <sodipodi:namedview
     pagecolor="#ffffff"
     bordercolor="#666666"
     borderopacity="1"
     objecttolerance="10"
     gridtolerance="10"
     guidetolerance="10"
     inkscape:pageopacity="0"
     inkscape:pageshadow="2"
     inkscape:window-width="1270"
     inkscape:window-height="945"
     id="namedview92"
     showgrid="false"
     inkscape:zoom="1.4142136"
     inkscape:cx="35.0141"
     inkscape:cy="-7.3810521"
     inkscape:window-x="0"
     inkscape:window-y="28"
     inkscape:current-layer="svg90"
     showguides="true"
     inkscape:guide-bbox="true">
    <sodipodi:guide
       orientation="0,1"
       position="52.349872,132.63645"
       id="guide1261" />
    <inkscape:grid
       type="xygrid"
       id="grid1381" />
  </sodipodi:namedview>
  <g
     id="g1544">
    <path
       style="fill:#f1d1d2;fill-opacity:1"
       d="m 3.9907202,162.32804 c -2.093917,-2.09392 -2.1127631,-2.55758 -2.1080166,-51.86281 l 0.00479,-49.750001 5.7991439,-5.57975 C 14.218879,48.850364 18.672597,39.298629 17.377354,34.35213 c -0.37976,-1.450296 -0.915241,-4.764301 -1.189956,-7.364457 -0.462597,-4.378428 -0.245077,-4.969224 2.94544,-8 2.751893,-2.614112 3.581534,-4.320341 4.12399,-8.481344 1.027831,-7.8841535 4.569712,-8.2620751 4.605773,-0.49144 0.02009,4.328503 2.21563,8.434403 5.429999,10.154682 2.278531,1.219432 2.585314,2.009214 2.585314,6.655621 0,2.899602 -0.495053,5.577963 -1.100119,5.951914 -1.768314,1.092878 -0.04118,11.414566 2.702991,16.15363 1.342554,2.318529 4.467914,6.115277 6.945246,8.437219 l 4.504238,4.221712 -0.09178,47.183933 c -0.100815,51.82977 0.145695,49.74077 -6.271283,53.14497 -2.513879,1.33361 -6.712657,1.77985 -19.82649,2.1071 -15.8880445,0.39648 -16.7323306,0.32004 -18.7499998,-1.69763 z M 29.877914,129.15621 c 0,-0.51754 -0.675,-0.94098 -1.5,-0.94098 -1.54641,0 -1.986704,1.17996 -0.86052,2.30615 0.798931,0.79893 2.36052,-0.10419 2.36052,-1.36517 z m -8,0.059 c 0,-0.55 -0.701558,-1 -1.559017,-1 -0.857459,0 -1.280902,0.45 -0.940983,1 0.339919,0.55 1.041476,1 1.559017,1 0.517541,0 0.940983,-0.45 0.940983,-1 z m -7,-3 c 0,-0.55 -0.45,-1 -1,-1 -0.55,0 -1,0.45 -1,1 0,0.55 0.45,1 1,1 0.55,0 1,-0.45 1,-1 z m 21.489919,-0.0163 c -0.345464,-0.55897 -1.047021,-0.75742 -1.559017,-0.44098 -1.387044,0.85722 -1.128411,1.45728 0.628115,1.45728 0.857459,0 1.276365,-0.45734 0.930902,-1.01631 z m -2.20017,-21.9837 c 0.379911,-1.45278 0.03068,-2 -1.27638,-2 -1.825818,0 -3.371432,2.3086 -2.277801,3.40223 1.239511,1.23952 3.050157,0.52516 3.554181,-1.40223 z m -13.789749,0 c -0.339919,-0.55 -0.816476,-1 -1.059017,-1 -0.242541,0 -0.440983,0.45 -0.440983,1 0,0.55 0.476558,1 1.059017,1 0.582459,0 0.780902,-0.45 0.440983,-1 z"
       id="path1485" />
    <path
       id="path1483"
       d="m 26.6875,5.5625 c -0.874708,-0.00676 -1.841737,2.0277138 -2.65625,6.09375 -0.929433,4.639715 -1.885472,6.504793 -4.3125,8.5 -2.34578,1.928415 -3.10055,3.373446 -3.09375,5.875 0.01065,3.917314 1.536901,7.1875 3.375,7.1875 2.200821,0 7.38382,2.956766 8,4.5625 0.7909,2.06107 -2.1689,3.045594 -4.59375,1.53125 -2.597947,-1.622445 -4.447965,-0.04519 -5.78125,4.90625 -0.638232,2.370214 -3.407319,6.334531 -7.4375,10.6875 -6.8161651,7.362087 -8.7799091,12.192266 -6.6250001,16.21875 1.666924,3.114676 8.7622701,3.000803 10.0312501,-0.15625 0.497414,-1.2375 0.93389,-1.710714 0.96875,-1.0625 0.03486,0.648215 0.791583,1.885333 1.6875,2.78125 0.979547,0.979545 2.27519,1.364388 3.25,0.9375 2.957519,-1.295154 8.15193,-1.637943 9.40625,-0.625 1.68601,1.361564 17.58602,0.567837 19.4375,-0.96875 2.89827,-2.405354 0.94939,-8.565658 -4.5,-14.21875 C 37.16197,50.880951 34.80736,46.603519 34.03125,40 33.52272,35.673261 33.73948,33.893395 35,32.09375 38.29222,27.393445 36.72996,21.879145 31.1875,18.6875 c -1.24179,-0.715093 -1.95575,-2.8043 -2.40625,-7 C 28.34364,7.6117817 27.56221,5.5692645 26.6875,5.5625 z m 21.15625,70.09375 c -1.06853,-0.03269 -3.29044,0.154822 -5.75,0.5 -3.27941,0.460239 -10.01875,0.686138 -14.96875,0.53125 -10.045417,-0.314326 -12.5,0.477263 -12.5,4 0,3.091315 1.787718,4.190501 3.34375,2.0625 1.362131,-1.862824 4.186737,-1.238637 5.09375,1.125 0.954847,2.488292 -0.494387,3.595062 -3.96875,3.03125 -3.175385,-0.515294 -3.272616,-0.413848 -3.625,3.28125 -0.521574,5.469215 0.195779,13.03125 1.25,13.03125 0.494618,0 0.90625,-1.06734 0.90625,-2.375 0,-1.307651 0.675,-2.940311 1.5,-3.625 0.825,-0.684689 1.5,-2.305446 1.5,-3.59375 0,-2.756772 2.790564,-4.548425 5.84375,-3.75 2.30342,0.602356 2.7967,1.829893 1.15625,2.84375 -1.113708,0.688308 -1.373889,9.78236 -0.3125,10.84375 0.3717,0.3717 1.6092,-0.17693 2.75,-1.21875 3.6102,-3.296946 6.25042,-3.530837 9,-0.78125 2.13885,2.13884 2.33747,2.90762 1.53125,5.71875 -1.45068,5.05824 -4.65926,7.93689 -8.09375,7.25 -2.60001,-0.52001 -2.92213,-0.26432 -3.5,2.625 -0.73597,3.67984 -4.517047,6.62441 -7.125,5.5625 -1.590786,-0.64774 -1.527416,-0.803 0.4375,-1.71875 1.194111,-0.55652 2.436486,-2.1576 2.78125,-3.53125 0.513003,-2.04397 -0.172565,-3.28648 -3.8125,-6.875 -2.446219,-2.41166 -4.738672,-4.375 -5.09375,-4.375 -0.355082,0 -0.349316,1.51299 0,3.375 0.656695,3.50049 -0.762349,5.65498 -2.21875,3.375 -0.444892,-0.69647 -0.895795,-4.56641 -1,-8.625 C 12.735998,95.278525 11.486467,93.598813 8.8437499,98.75 c -1.924808,3.75184 -1.919284,3.75028 -2.5625,1.1875 -0.786461,-3.133505 -0.123203,-5.051383 3.53125,-10.125 2.8019171,-3.890011 3.6011321,-6.59375 1.9375001,-6.59375 -2.8604691,0 -7.9279491,3.184899 -8.3125001,5.21875 -0.399177,2.11123 -0.388019,16.74657 0.03125,46 l 0.15625,11.71875 3.1875,0.8125 c 4.7936391,1.24216 5.0084121,3.54893 0.25,2.65625 l -3.75,-0.6875 0.65625,4.78125 c 0.360343,2.62899 0.65625,5.39029 0.65625,6.15625 0,0.76595 0.930647,1.73755 2.0625,2.15625 2.14083,0.79195 24.3351101,0.50619 31.6250001,-0.40625 6.217,-0.77815 9.3125,-3.62813 9.3125,-8.59375 0,-3.70828 -0.18681,-3.99802 -2.25,-3.4375 -4.3868,1.1918 -15.75,1.91523 -15.75,1 0,-1.00251 9.07969,-3.38175 13.03125,-3.40625 1.35889,-0.008 2.97406,-0.34592 3.59375,-0.75 1.55999,-1.01721 3.73066,-69.206839 2.25,-70.6875 -0.06142,-0.06142 -0.30007,-0.08285 -0.65625,-0.09375 z m -42.2812501,0.5625 c -1.274316,0 -1.9375,0.686937 -1.9375,2 0,2.289436 0.375346,2.392345 3.09375,0.9375 2.301866,-1.231922 1.627041,-2.9375 -1.15625,-2.9375 z M 11.25,77.59375 c -1.01418,-0.115782 -1.8385671,1.470424 -1.125,2.625 0.339919,0.55 1.044959,1 1.5625,1 1.216804,0 1.214616,-2.718076 0,-3.46875 -0.148611,-0.09185 -0.292617,-0.13971 -0.4375,-0.15625 z m 32.40625,2.625 c 1.28713,0 3.18734,3.868544 2.46875,5.03125 -0.78874,1.27621 -3.20399,1.25672 -4,-0.03125 -0.79281,-1.282796 0.34321,-5 1.53125,-5 z m -13.875,2.6875 c 0.85981,0.004 1.97438,0.292929 3.34375,0.875 1.65,0.701354 3.68694,1.497466 4.53125,1.75 0.8443,0.252534 2.79532,2.296857 4.34375,4.53125 1.54844,2.234393 2.65527,4.596672 2.4375,5.25 -0.22218,0.666524 -1.16936,0.0062 -2.15625,-1.5 -2.39061,-3.648531 -7.47265,-6.58925 -11.40625,-6.59375 -2.53493,-0.0029 -3.25,-0.41129 -3.25,-1.90625 0,-1.594437 0.72323,-2.412855 2.15625,-2.40625 z M 26.5,105.21875 c -0.55,0 -0.714919,0.45 -0.375,1 0.339919,0.55 1.075,1 1.625,1 0.55,0 0.71492,-0.45 0.375,-1 -0.33991,-0.55 -1.075,-1 -1.625,-1 z M 44.59375,112.25 c 0.59364,0.064 1.18393,0.39939 1.59375,1.0625 0.79151,1.28069 -1.85456,4.27044 -2.875,3.25 -0.37976,-0.37976 -0.6875,-1.49166 -0.6875,-2.5 0,-1.24668 0.97935,-1.9192 1.96875,-1.8125 z m -37.5312501,0.125 c 0.138715,0.003 0.284717,0.0334 0.4375,0.0625 0.893295,0.17012 1.783216,1.38099 1.96875,2.6875 0.339102,2.38794 1.2419341,3.80443 4.3437501,6.90625 4.531917,4.53191 7.919153,5.66091 14.8125,4.9375 2.25941,-0.2371 2.50075,0.12555 2.59375,3.5625 0.12634,4.66735 1.65791,6.53284 3.84375,4.71875 1.25945,-1.04524 1.64704,-0.98324 2.15625,0.34375 0.86716,2.25979 2.40625,2.02448 2.40625,-0.375 0,-2.7787 1.45586,-2.51487 2.84375,0.53125 1.84927,4.05871 1.39821,6.11599 -1.59375,7.3125 -4.05483,1.62157 -10.42971,1.68234 -12.90625,0.125 -1.838533,-1.15617 -2.437274,-1.13071 -3.875,0.0625 -1.692108,1.40433 -5.071002,1.75009 -11.21875,1.15625 -3.4500291,-0.33326 -6.2068171,-3.48268 -4.1562501,-4.75 0.607606,-0.37552 1.7296091,-2.18744 2.5000001,-4.03125 1.254296,-3.00195 1.722295,-3.28679 4.40625,-2.75 3.016103,0.60322 3.554963,-0.0567 2.4375,-2.96875 -0.325203,-0.84747 -1.340756,-1.27863 -2.40625,-1 -1.229118,0.32142 -2.266948,-0.28609 -3.09375,-1.84375 -0.684376,-1.28933 -2.127461,-2.96692 -3.1875001,-3.71875 -1.10601,-0.78444 -1.733907,-2.11104 -1.46875,-3.125 0.254136,-0.97182 -0.354625,-2.50133 -1.375,-3.375 -2.008332,-1.71959 -1.549474,-4.50901 0.53125,-4.46875 z m 34.3437501,6.1875 c 0.51067,-0.0819 1.02223,0.0535 1.4375,0.46875 0.88825,0.88826 0.94215,1.70987 0.1875,2.90625 -1.49579,2.37132 -3.28866,2.71643 -4.03125,0.78125 -0.68404,-1.78258 0.87423,-3.91042 2.40625,-4.15625 z m -4.875,5.21875 c 0.23883,-0.004 0.48079,0.0337 0.71875,0.125 0.81922,0.31436 1.35517,1.51798 1.1875,2.6875 -0.36574,2.55098 -3.58496,3.40919 -4.4375,1.1875 -0.69199,-1.8033 0.85942,-3.97427 2.53125,-4 z M 25.4375,130.625 c -0.459976,0.0602 -0.989737,0.31424 -1.6875,0.75 -1.172367,0.73216 -2.125,1.57418 -2.125,1.875 0,0.30083 1.890553,0.62715 4.1875,0.71875 l 4.15625,0.15625 -2.03125,-2.03125 c -1.11554,-1.11554 -1.733373,-1.56901 -2.5,-1.46875 z M 16.5,148.53125 c 1.00694,-0.0178 2.20128,-0.0186 3.59375,0.0313 7.75352,0.27747 10.02443,1.09101 7.5,2.6875 -0.80907,0.51167 -1.69375,0.8865 -1.96875,0.8125 -0.275,-0.074 -1.85,-0.29968 -3.5,-0.5 C 11.760907,150.30426 9.4514199,148.65584 16.5,148.5313 z"
       style="fill:#d61711;fill-opacity:1" />
    <path
       sodipodi:nodetypes="ccsssssscc"
       id="path1481"
       d="m 23.881713,32.537631 c -3.057054,0 -7.181273,-0.08057 -7.543221,-0.01889 -0.361948,-4.93832 0.03838,-4.234384 0.03041,-7.165366 -0.0068,-2.501554 0.754471,-3.943386 3.100251,-5.871801 2.427028,-1.995207 3.370529,-3.860285 4.299962,-8.5 1.629025,-8.1320725 3.875724,-8.1146965 4.750959,0.03674 0.4505,4.1957 1.170455,6.284907 2.412251,7 3.640798,2.096573 5.445588,4.610434 5.445588,7.585061 0,3.779462 0.28092,7.434259 0.12121,7.309259 -0.548602,0.0827 -5.89126,-0.10462 -12.617407,-0.375 z"
       style="fill:#24cc5a;stroke:none;stroke-opacity:1;stroke-width:2.39999999999999991;stroke-miterlimit:4;stroke-dasharray:none" />
  </g>
  <rect
     style="color:#000000;fill:#ffffff;fill-opacity:1;fill-rule:nonzero;stroke:none;stroke-width:1.20000005;marker:none;visibility:visible;display:inline;overflow:visible;enable-background:accumulate"
     id="rect1098"
     width="42.355934"
     height="84.355934"
     x="-162.66718"
     y="216.48404" />
</svg>
