<?xml version="1.0"?>
<svg xmlns:rdf="http://www.w3.org/1999/02/22-rdf-syntax-ns#" xmlns="http://www.w3.org/2000/svg" xmlns:cc="http://web.resource.org/cc/" xmlns:xlink="http://www.w3.org/1999/xlink" xmlns:dc="http://purl.org/dc/elements/1.1/" xmlns:svg="http://www.w3.org/2000/svg" id="svg1" height="426.25" width="182pt" version="1.0" y="0" x="0">
  <defs id="defs3">
    <linearGradient id="linearGradient1118" y2="38.519" gradientUnits="userSpaceOnUse" y1="332.51" gradientTransform="scale(.73147 1.3671)" x2="217.78" x1="217.78">
      <stop id="stop6678" stop-color="#a28c00" offset="0"/>
      <stop id="stop6679" stop-color="#e9d343" offset="1"/>
    </linearGradient>
  </defs>
  <g id="g1111" stroke="#000" fill-rule="evenodd" transform="translate(-111 -22.134)">
    <path id="path910" d="m194.12 56.562l-8.46 1.813-1.17 19.51h3.53c-1.65 63.665-3.5 131.9-5.14 191.5-4.2 36.31-13.62 46.41-32.38 85.06-20.97 46.61-42.26 82.42-78.365 126.13h29.955c25.32-45.03 49.49-55.09 93.53-56.29 43.51 0.65 53.02 12.84 77.76 56.29h25.08c-28.27-41.61-49.39-82.49-67.18-125.26-16.39-42.47-21.12-49.41-25.87-86.06-4.05-58.98 0.14-127.72-3.9-191.36l3.42-0.005-2.15-20.291-8.66-1.032zm-15.37 265.03h28.75l20.75 65.57h-72.03l22.53-65.57z" stroke-width="1.1627" fill="url(#linearGradient1118)" transform="translate(40.073 -31.32)"/>
    <rect id="rect6682" fill-opacity=".75" ry="0" height="228.03" width="5.7606" y="46.565" x="231.98" stroke-width=".125" fill="#a88d00"/>
    <rect id="rect5333" fill-opacity=".71154" transform="translate(40.073 -31.32)" height="11.645" width="49.904" y="306.57" x="168.07" stroke-width="1.0319" fill="#c1a834"/>
    <rect id="rect5334" transform="translate(40.073 -31.32)" height="0" width="9.8987" y="209.91" x="184" stroke-width="1.2463" fill="#c1beb0"/>
    <rect id="rect5335" fill-opacity=".73558" transform="translate(40.073 -31.32)" height="6.405" width="20.38" y="202.88" x="184" stroke-width="1.2463" fill="#c1a72e"/>
    <rect id="rect5336" fill-opacity=".75" transform="translate(40.073 -31.32)" height="13.392" width="127.56" y="389.83" x="125.75" stroke-width="1.2243" fill="#c1a936"/>
  </g>
  <metadata>
    <rdf:RDF>
      <cc:Work>
        <dc:format>image/svg+xml</dc:format>
        <dc:type rdf:resource="http://purl.org/dc/dcmitype/StillImage"/>
        <cc:license rdf:resource="http://creativecommons.org/licenses/publicdomain/"/>
        <dc:publisher>
          <cc:Agent rdf:about="http://openclipart.org/">
            <dc:title>Openclipart</dc:title>
          </cc:Agent>
        </dc:publisher>
        <dc:title>Eiffel tower</dc:title>
        <dc:date>2008-02-05T01:53:35</dc:date>
        <dc:description>building, building, clip art, clipart, eiffel, eiffel, europe, europe, image, landmark, landmark, media, paris, paris, png, public domain, svg, tower, tower, </dc:description>
        <dc:source>http://openclipart.org/detail/12745/eiffel-tower-by-anonymous-12745</dc:source>
        <dc:creator>
          <cc:Agent>
            <dc:title>Anonymous</dc:title>
          </cc:Agent>
        </dc:creator>
        <dc:subject>
          <rdf:Bag>
            <rdf:li>building</rdf:li>
            <rdf:li>clip art</rdf:li>
            <rdf:li>clipart</rdf:li>
            <rdf:li>eiffel</rdf:li>
            <rdf:li>europe</rdf:li>
            <rdf:li>image</rdf:li>
            <rdf:li>landmark</rdf:li>
            <rdf:li>media</rdf:li>
            <rdf:li>paris</rdf:li>
            <rdf:li>png</rdf:li>
            <rdf:li>public domain</rdf:li>
            <rdf:li>svg</rdf:li>
            <rdf:li>tower</rdf:li>
          </rdf:Bag>
        </dc:subject>
      </cc:Work>
      <cc:License rdf:about="http://creativecommons.org/licenses/publicdomain/">
        <cc:permits rdf:resource="http://creativecommons.org/ns#Reproduction"/>
        <cc:permits rdf:resource="http://creativecommons.org/ns#Distribution"/>
        <cc:permits rdf:resource="http://creativecommons.org/ns#DerivativeWorks"/>
      </cc:License>
    </rdf:RDF>
  </metadata>
</svg>
